<svg width="480" height="463" viewBox="0 0 480 463" fill="none" xmlns="http://www.w3.org/2000/svg">
<g clip-path="url(#clip0_101_2)">
<path d="M474.161 218.742L371.675 146.648C351.196 132.242 332.922 115.285 317.359 96.2494L240.075 1.71729L142.035 119.91C148.274 143.126 173.802 196.135 234.759 203.78C253.045 206.078 283.357 208.011 332.919 195.703C333.471 195.61 334.023 195.544 334.574 195.46C341.736 202.486 356.521 232.344 396.514 248.337C417.578 255.691 430.187 248.45 443.467 239.651L474.161 218.742Z" fill="white"/>
<path d="M474.161 218.742L371.675 146.648C351.196 132.242 332.922 115.285 317.359 96.2494L240.075 1.71729L142.035 119.91C148.274 143.126 173.802 196.135 234.759 203.78C253.045 206.078 283.357 208.011 332.919 195.703C333.471 195.61 334.023 195.544 334.574 195.46C341.736 202.486 356.521 232.344 396.514 248.337C417.578 255.691 430.187 248.45 443.467 239.651L474.161 218.742Z" fill="white"/>
<g filter="url(#filter0_d_101_2)">
<path d="M332.919 195.544C352.228 192.158 372.751 195.976 384.998 200.234C392.24 202.945 423.115 213.854 443.397 239.501L474.161 218.564L371.657 146.44C351.21 132.054 332.961 115.124 317.415 96.12L240.075 1.5766L142.035 119.769C148.274 142.986 173.802 195.995 234.759 203.64C253.045 205.938 283.357 207.87 332.919 195.563" fill="white"/>
<path d="M332.919 195.544C352.228 192.158 372.751 195.976 384.998 200.234C392.24 202.945 423.115 213.854 443.397 239.501L474.161 218.564L371.657 146.44C351.21 132.054 332.961 115.124 317.415 96.12L240.075 1.5766L142.035 119.769C148.274 142.986 173.802 195.995 234.759 203.64C253.045 205.938 283.357 207.87 332.919 195.563" fill="url(#paint0_linear_101_2)"/>
<path style="mix-blend-mode:darken" d="M332.919 195.544C352.228 192.158 372.751 195.976 384.998 200.234C392.24 202.945 423.115 213.854 443.397 239.501L474.161 218.564L371.657 146.44C351.21 132.054 332.961 115.124 317.415 96.12L240.075 1.5766L142.035 119.769C148.274 142.986 173.802 195.995 234.759 203.64C253.045 205.938 283.357 207.87 332.919 195.563" fill="url(#paint1_linear_101_2)"/>
</g>
<path d="M16.8618 225.496L150.17 319.318L250.968 442.52L349.008 324.328C342.759 301.111 317.241 248.121 256.285 240.476C238.009 238.178 207.686 236.246 158.124 248.553C157.582 248.647 157.031 248.712 156.479 248.797C149.307 241.771 134.532 211.913 94.5296 195.919C73.4653 188.565 60.8667 195.807 47.5859 204.606L16.8618 225.496Z" fill="white"/>
<path style="mix-blend-mode:darken" d="M16.8618 225.496L150.17 319.318L250.968 442.52L349.008 324.328C342.759 301.111 317.241 248.121 256.285 240.476C238.009 238.178 207.686 236.246 158.124 248.553C157.582 248.647 157.031 248.712 156.479 248.797C149.307 241.771 134.532 211.913 94.5296 195.919C73.4653 188.565 60.8667 195.807 47.5859 204.606L16.8618 225.496Z" fill="white"/>
<g filter="url(#filter1_df_101_2)">
<path d="M158.124 248.684C138.815 252.08 118.302 248.253 106.055 243.994C98.8125 241.283 67.938 230.383 47.646 204.737L16.8618 225.637L125.535 302.114C141.882 313.617 156.473 327.153 168.903 342.347L250.968 442.652L349.008 324.459C342.779 301.252 317.241 248.243 256.285 240.598C238.009 238.3 207.686 236.368 158.124 248.666" fill="white"/>
<path style="mix-blend-mode:multiply" d="M158.124 248.684C138.815 252.08 118.302 248.253 106.055 243.994C98.8125 241.283 67.938 230.383 47.646 204.737L16.8618 225.637L125.535 302.114C141.882 313.617 156.473 327.153 168.903 342.347L250.968 442.652L349.008 324.459C342.779 301.252 317.241 248.243 256.285 240.598C238.009 238.3 207.686 236.368 158.124 248.666" fill="white"/>
<path style="mix-blend-mode:darken" d="M158.124 248.684C138.815 252.08 118.302 248.253 106.055 243.994C98.8125 241.283 67.938 230.383 47.646 204.737L16.8618 225.637L125.535 302.114C141.882 313.617 156.473 327.153 168.903 342.347L250.968 442.652L349.008 324.459C342.779 301.252 317.241 248.243 256.285 240.598C238.009 238.3 207.686 236.368 158.124 248.666" fill="white"/>
</g>
</g>
<defs>
<filter id="filter0_d_101_2" x="132.035" y="1.5766" width="352.126" height="257.924" filterUnits="userSpaceOnUse" color-interpolation-filters="sRGB">
<feFlood flood-opacity="0" result="BackgroundImageFix"/>
<feColorMatrix in="SourceAlpha" type="matrix" values="0 0 0 0 0 0 0 0 0 0 0 0 0 0 0 0 0 0 127 0" result="hardAlpha"/>
<feOffset dy="10"/>
<feGaussianBlur stdDeviation="5"/>
<feColorMatrix type="matrix" values="0 0 0 0 0 0 0 0 0 0 0 0 0 0 0 0 0 0 0.3 0"/>
<feBlend mode="normal" in2="BackgroundImageFix" result="effect1_dropShadow_101_2"/>
<feBlend mode="normal" in="SourceGraphic" in2="effect1_dropShadow_101_2" result="shape"/>
</filter>
<filter id="filter1_df_101_2" x="-13.1382" y="182.737" width="392.146" height="297.915" filterUnits="userSpaceOnUse" color-interpolation-filters="sRGB">
<feFlood flood-opacity="0" result="BackgroundImageFix"/>
<feColorMatrix in="SourceAlpha" type="matrix" values="0 0 0 0 0 0 0 0 0 0 0 0 0 0 0 0 0 0 127 0" result="hardAlpha"/>
<feOffset dy="8"/>
<feGaussianBlur stdDeviation="15"/>
<feColorMatrix type="matrix" values="0 0 0 0 0 0 0 0 0 0 0 0 0 0 0 0 0 0 0.4 0"/>
<feBlend mode="normal" in2="BackgroundImageFix" result="effect1_dropShadow_101_2"/>
<feBlend mode="normal" in="SourceGraphic" in2="effect1_dropShadow_101_2" result="shape"/>
<feGaussianBlur stdDeviation="1" result="effect2_foregroundBlur_101_2"/>
</filter>
<linearGradient id="paint0_linear_101_2" x1="245.559" y1="1.5766" x2="246.766" y2="120.269" gradientUnits="userSpaceOnUse">
<stop stop-color="white"/>
<stop offset="1" stop-color="white" stop-opacity="0"/>
</linearGradient>
<linearGradient id="paint1_linear_101_2" x1="192.093" y1="77.0488" x2="264.786" y2="112.681" gradientUnits="userSpaceOnUse">
<stop stop-color="white"/>
<stop offset="0.764585" stop-color="white" stop-opacity="0"/>
</linearGradient>
<clipPath id="clip0_101_2">
<rect width="480" height="463" fill="white"/>
</clipPath>
</defs>
</svg>
